<svg xmlns="http://www.w3.org/2000/svg" xml:space="preserve" id="bitcoin" x="0" y="0" version="1.1" viewBox="0 0 24 24">
  <path fill="#F9C20A" d="M12 0C5.383 0 0 5.383 0 12s5.383 12 12 12 12-5.383 12-12S18.617 0 12 0z"></path>
  <path d="M12 23.75C5.425 23.75.074 18.434.006 11.875c0 .042-.006.083-.006.125 0 6.617 5.383 12 12 12s12-5.383 12-12c0-.042-.006-.083-.006-.125C23.926 18.434 18.575 23.75 12 23.75z" opacity=".1"></path>
  <path fill="#FFF" d="M12 .25c5.321 0 9.842 3.45 11.47 8.227C21.962 3.575 17.392 0 12 0S2.038 3.575.53 8.477C2.158 3.7 6.679.25 12 .25z" opacity=".2"></path>
  <path fill="#FFDA02" d="M12 3c-4.963 0-9 4.038-9 9s4.037 9 9 9 9-4.038 9-9-4.037-9-9-9z"></path>
  <path fill="#B57916" d="M15 13.75c0-.83-.452-1.557-1.123-1.947A2.249 2.249 0 0 0 13.5 8.38V7.5h-1v.525c-.083-.01-.164-.025-.25-.025h-.75v-.5h-1V8h-1v1h.5v6h-.5v1h1v.5h1V16h1v.5h1v-.638c.87-.31 1.5-1.136 1.5-2.112zM12.25 9a1.251 1.251 0 0 1 0 2.5H11V9h1.25zm.5 6H11v-2.5h1.75a1.251 1.251 0 0 1 0 2.5z"></path>
  <linearGradient id="SVGID_1_" x1="9.606" x2="16.815" y1="14.144" y2="6.935" gradientTransform="matrix(1 0 0 -1 0 24)" gradientUnits="userSpaceOnUse">
    <stop offset="0" stop-color="#3E2723" stop-opacity=".2"></stop>
    <stop offset="1" stop-color="#3E2723" stop-opacity=".02"></stop>
  </linearGradient>
  <path fill="url(#SVGID_1_)" d="M13.5 10.25c0-.69-.56-1.25-1.25-1.25H11v2.5h1.25c.69 0 1.25-.56 1.25-1.25zm-2-2.75V8h.5l-.5-.5zm2.5 6.25c0-.69-.56-1.25-1.25-1.25H11V15h1.75c.69 0 1.25-.56 1.25-1.25zM10 9h-.5l.5.5V9zm3.5-1.5v.881a2.249 2.249 0 0 1 .377 3.422A2.252 2.252 0 0 1 15 13.75c0 .976-.63 1.801-1.5 2.112v.638h-1V16h-1v.5h-1V16h-1l4.713 4.713a9.026 9.026 0 0 0 6.398-6.102L13.5 7.5z"></path>
  <linearGradient id="SVGID_2_" x1="1.125" x2="22.875" y1="17.071" y2="6.929" gradientTransform="matrix(1 0 0 -1 0 24)" gradientUnits="userSpaceOnUse">
    <stop offset="0" stop-color="#FFF" stop-opacity=".2"></stop>
    <stop offset="1" stop-color="#FFF" stop-opacity="0"></stop>
  </linearGradient>
  <path fill="url(#SVGID_2_)" d="M12 0C5.383 0 0 5.383 0 12s5.383 12 12 12 12-5.383 12-12S18.617 0 12 0z"></path>
</svg>
